<mxfile host="Electron" agent="Mozilla/5.0 (Windows NT 10.0; Win64; x64) AppleWebKit/537.36 (KHTML, like Gecko) draw.io/24.7.17 Chrome/128.0.6613.36 Electron/32.0.1 Safari/537.36" version="24.7.17">
  <diagram name="Page-1" id="c4acf3e9-155e-7222-9cf6-157b1a14988f">
    <mxGraphModel dx="5577" dy="2760" grid="1" gridSize="10" guides="1" tooltips="1" connect="1" arrows="1" fold="1" page="1" pageScale="1" pageWidth="850" pageHeight="1100" background="none" math="0" shadow="0">
      <root>
        <mxCell id="0" />
        <mxCell id="1" parent="0" />
        <mxCell id="39ZywAYGFi1s37GMVEoQ-1" value="Administrador" style="shape=umlActor;verticalLabelPosition=bottom;verticalAlign=top;html=1;fillColor=#f8cecc;strokeColor=#b85450;" vertex="1" parent="1">
          <mxGeometry x="-510" y="590" width="30" height="60" as="geometry" />
        </mxCell>
        <mxCell id="39ZywAYGFi1s37GMVEoQ-2" value="Usuario" style="shape=umlActor;verticalLabelPosition=bottom;verticalAlign=top;html=1;" vertex="1" parent="1">
          <mxGeometry x="-510" y="1240" width="30" height="60" as="geometry" />
        </mxCell>
        <mxCell id="39ZywAYGFi1s37GMVEoQ-23" value="Registrar equipo" style="ellipse;whiteSpace=wrap;html=1;fillColor=#f8cecc;strokeColor=#b85450;" vertex="1" parent="1">
          <mxGeometry x="36.63000000000001" y="190" width="140" height="70" as="geometry" />
        </mxCell>
        <mxCell id="39ZywAYGFi1s37GMVEoQ-24" value="A単adir jugadores" style="ellipse;whiteSpace=wrap;html=1;fillColor=#f8cecc;strokeColor=#b85450;" vertex="1" parent="1">
          <mxGeometry x="300.65" y="190" width="140" height="70" as="geometry" />
        </mxCell>
        <mxCell id="39ZywAYGFi1s37GMVEoQ-25" value="" style="endArrow=classic;dashed=1;html=1;rounded=0;endFill=1;exitX=0.986;exitY=0.386;exitDx=0;exitDy=0;exitPerimeter=0;entryX=-0.007;entryY=0.343;entryDx=0;entryDy=0;entryPerimeter=0;fillColor=#f8cecc;strokeColor=#b85450;" edge="1" parent="1" source="39ZywAYGFi1s37GMVEoQ-23" target="39ZywAYGFi1s37GMVEoQ-24">
          <mxGeometry width="50" height="50" relative="1" as="geometry">
            <mxPoint x="211.63" y="213.02999999999997" as="sourcePoint" />
            <mxPoint x="310.65" y="190" as="targetPoint" />
          </mxGeometry>
        </mxCell>
        <mxCell id="39ZywAYGFi1s37GMVEoQ-26" value="&amp;lt;&amp;lt;include&amp;gt;&amp;gt;" style="text;html=1;align=center;verticalAlign=middle;whiteSpace=wrap;rounded=0;fillColor=#f8cecc;strokeColor=#b85450;" vertex="1" parent="1">
          <mxGeometry x="220.64999999999998" y="180" width="60" height="30" as="geometry" />
        </mxCell>
        <mxCell id="39ZywAYGFi1s37GMVEoQ-29" value="Editar equipo" style="ellipse;whiteSpace=wrap;html=1;fillColor=#f8cecc;strokeColor=#b85450;" vertex="1" parent="1">
          <mxGeometry x="618" y="1109" width="140" height="70" as="geometry" />
        </mxCell>
        <mxCell id="39ZywAYGFi1s37GMVEoQ-32" value="" style="endArrow=classic;dashed=1;html=1;rounded=0;endFill=1;entryX=-0.007;entryY=0.343;entryDx=0;entryDy=0;entryPerimeter=0;fillColor=#f8cecc;strokeColor=#b85450;" edge="1" parent="1">
          <mxGeometry width="50" height="50" relative="1" as="geometry">
            <mxPoint x="468" y="1141" as="sourcePoint" />
            <mxPoint x="618" y="1141" as="targetPoint" />
          </mxGeometry>
        </mxCell>
        <mxCell id="39ZywAYGFi1s37GMVEoQ-33" value="&amp;lt;&amp;lt;include&amp;gt;&amp;gt;" style="text;html=1;align=center;verticalAlign=middle;whiteSpace=wrap;rounded=0;fillColor=#f8cecc;strokeColor=#b85450;" vertex="1" parent="1">
          <mxGeometry x="511.57000000000005" y="1100" width="60" height="30" as="geometry" />
        </mxCell>
        <mxCell id="39ZywAYGFi1s37GMVEoQ-34" value="" style="endArrow=none;html=1;rounded=0;entryX=0.021;entryY=0.714;entryDx=0;entryDy=0;entryPerimeter=0;fillColor=#f8cecc;strokeColor=#b85450;" edge="1" parent="1" target="39ZywAYGFi1s37GMVEoQ-23">
          <mxGeometry width="50" height="50" relative="1" as="geometry">
            <mxPoint x="-456.02" y="600" as="sourcePoint" />
            <mxPoint x="113.98000000000002" y="227.01999999999998" as="targetPoint" />
          </mxGeometry>
        </mxCell>
        <mxCell id="39ZywAYGFi1s37GMVEoQ-39" value="Editar jugador" style="ellipse;whiteSpace=wrap;html=1;fillColor=#f8cecc;strokeColor=#b85450;" vertex="1" parent="1">
          <mxGeometry x="616" y="1217" width="140" height="70" as="geometry" />
        </mxCell>
        <mxCell id="39ZywAYGFi1s37GMVEoQ-42" value="" style="endArrow=classic;dashed=1;html=1;rounded=0;endFill=1;exitX=1;exitY=0.5;exitDx=0;exitDy=0;entryX=-0.007;entryY=0.343;entryDx=0;entryDy=0;entryPerimeter=0;fillColor=#f8cecc;strokeColor=#b85450;" edge="1" parent="1" source="39ZywAYGFi1s37GMVEoQ-134">
          <mxGeometry width="50" height="50" relative="1" as="geometry">
            <mxPoint x="528" y="1248" as="sourcePoint" />
            <mxPoint x="616" y="1249" as="targetPoint" />
          </mxGeometry>
        </mxCell>
        <mxCell id="39ZywAYGFi1s37GMVEoQ-43" value="&amp;lt;&amp;lt;include&amp;gt;&amp;gt;" style="text;html=1;align=center;verticalAlign=middle;whiteSpace=wrap;rounded=0;fillColor=#f8cecc;strokeColor=#b85450;" vertex="1" parent="1">
          <mxGeometry x="511.57000000000005" y="1210" width="60" height="30" as="geometry" />
        </mxCell>
        <mxCell id="39ZywAYGFi1s37GMVEoQ-45" value="Crear torneo" style="ellipse;whiteSpace=wrap;html=1;fillColor=#f8cecc;strokeColor=#b85450;" vertex="1" parent="1">
          <mxGeometry x="16.629999999999995" y="470" width="140" height="70" as="geometry" />
        </mxCell>
        <mxCell id="39ZywAYGFi1s37GMVEoQ-46" value="Tipo de torneo" style="ellipse;whiteSpace=wrap;html=1;fillColor=#f8cecc;strokeColor=#b85450;" vertex="1" parent="1">
          <mxGeometry x="300.65" y="350" width="140" height="70" as="geometry" />
        </mxCell>
        <mxCell id="39ZywAYGFi1s37GMVEoQ-47" value="A単adir equipos" style="ellipse;whiteSpace=wrap;html=1;fillColor=#f8cecc;strokeColor=#b85450;" vertex="1" parent="1">
          <mxGeometry x="306.63" y="440" width="140" height="70" as="geometry" />
        </mxCell>
        <mxCell id="39ZywAYGFi1s37GMVEoQ-48" value="A単adir fecha de inicio" style="ellipse;whiteSpace=wrap;html=1;fillColor=#f8cecc;strokeColor=#b85450;" vertex="1" parent="1">
          <mxGeometry x="306.63" y="530" width="140" height="70" as="geometry" />
        </mxCell>
        <mxCell id="39ZywAYGFi1s37GMVEoQ-49" value="Generar partidos" style="ellipse;whiteSpace=wrap;html=1;fillColor=#f8cecc;strokeColor=#b85450;" vertex="1" parent="1">
          <mxGeometry x="310.61" y="610" width="140" height="70" as="geometry" />
        </mxCell>
        <mxCell id="39ZywAYGFi1s37GMVEoQ-50" value="a単adir partidos" style="ellipse;whiteSpace=wrap;html=1;fillColor=#f8cecc;strokeColor=#b85450;" vertex="1" parent="1">
          <mxGeometry x="306.63" y="700" width="140" height="70" as="geometry" />
        </mxCell>
        <mxCell id="39ZywAYGFi1s37GMVEoQ-51" value="" style="endArrow=classic;dashed=1;html=1;rounded=0;endFill=1;entryX=-0.007;entryY=0.343;entryDx=0;entryDy=0;entryPerimeter=0;fillColor=#f8cecc;strokeColor=#b85450;" edge="1" parent="1" source="39ZywAYGFi1s37GMVEoQ-45">
          <mxGeometry width="50" height="50" relative="1" as="geometry">
            <mxPoint x="211.64999999999998" y="403" as="sourcePoint" />
            <mxPoint x="299.65" y="404" as="targetPoint" />
          </mxGeometry>
        </mxCell>
        <mxCell id="39ZywAYGFi1s37GMVEoQ-52" value="&amp;lt;&amp;lt;include&amp;gt;&amp;gt;" style="text;html=1;align=center;verticalAlign=middle;whiteSpace=wrap;rounded=0;fillColor=#f8cecc;strokeColor=#b85450;" vertex="1" parent="1">
          <mxGeometry x="176.63" y="400" width="60" height="30" as="geometry" />
        </mxCell>
        <mxCell id="39ZywAYGFi1s37GMVEoQ-53" value="" style="endArrow=classic;dashed=1;html=1;rounded=0;endFill=1;exitX=0.993;exitY=0.386;exitDx=0;exitDy=0;exitPerimeter=0;fillColor=#f8cecc;strokeColor=#b85450;" edge="1" parent="1" source="39ZywAYGFi1s37GMVEoQ-45" target="39ZywAYGFi1s37GMVEoQ-47">
          <mxGeometry width="50" height="50" relative="1" as="geometry">
            <mxPoint x="211.63" y="503" as="sourcePoint" />
            <mxPoint x="299.63" y="504" as="targetPoint" />
          </mxGeometry>
        </mxCell>
        <mxCell id="39ZywAYGFi1s37GMVEoQ-54" value="&amp;lt;&amp;lt;include&amp;gt;&amp;gt;" style="text;html=1;align=center;verticalAlign=middle;whiteSpace=wrap;rounded=0;fillColor=#f8cecc;strokeColor=#b85450;" vertex="1" parent="1">
          <mxGeometry x="220.63" y="450" width="60" height="30" as="geometry" />
        </mxCell>
        <mxCell id="39ZywAYGFi1s37GMVEoQ-55" value="" style="endArrow=classic;dashed=1;html=1;rounded=0;endFill=1;exitX=0.971;exitY=0.657;exitDx=0;exitDy=0;exitPerimeter=0;entryX=0;entryY=0.5;entryDx=0;entryDy=0;fillColor=#f8cecc;strokeColor=#b85450;" edge="1" parent="1" source="39ZywAYGFi1s37GMVEoQ-45" target="39ZywAYGFi1s37GMVEoQ-48">
          <mxGeometry width="50" height="50" relative="1" as="geometry">
            <mxPoint x="211.63" y="583" as="sourcePoint" />
            <mxPoint x="299.63" y="584" as="targetPoint" />
          </mxGeometry>
        </mxCell>
        <mxCell id="39ZywAYGFi1s37GMVEoQ-56" value="&amp;lt;&amp;lt;include&amp;gt;&amp;gt;" style="text;html=1;align=center;verticalAlign=middle;whiteSpace=wrap;rounded=0;fillColor=#f8cecc;strokeColor=#b85450;" vertex="1" parent="1">
          <mxGeometry x="229.63" y="510" width="60" height="30" as="geometry" />
        </mxCell>
        <mxCell id="39ZywAYGFi1s37GMVEoQ-57" value="" style="endArrow=classic;dashed=1;html=1;rounded=0;endFill=1;entryX=0;entryY=0.5;entryDx=0;entryDy=0;fillColor=#f8cecc;strokeColor=#b85450;" edge="1" parent="1" source="39ZywAYGFi1s37GMVEoQ-45" target="39ZywAYGFi1s37GMVEoQ-49">
          <mxGeometry width="50" height="50" relative="1" as="geometry">
            <mxPoint x="211.63" y="673" as="sourcePoint" />
            <mxPoint x="299.63" y="674" as="targetPoint" />
          </mxGeometry>
        </mxCell>
        <mxCell id="39ZywAYGFi1s37GMVEoQ-58" value="&amp;lt;&amp;lt;include&amp;gt;&amp;gt;" style="text;html=1;align=center;verticalAlign=middle;whiteSpace=wrap;rounded=0;fillColor=#f8cecc;strokeColor=#b85450;" vertex="1" parent="1">
          <mxGeometry x="260.65000000000003" y="590" width="60" height="30" as="geometry" />
        </mxCell>
        <mxCell id="39ZywAYGFi1s37GMVEoQ-59" value="" style="endArrow=classic;dashed=1;html=1;rounded=0;endFill=1;exitX=0.564;exitY=1.029;exitDx=0;exitDy=0;exitPerimeter=0;entryX=0;entryY=0.5;entryDx=0;entryDy=0;fillColor=#f8cecc;strokeColor=#b85450;" edge="1" parent="1" source="39ZywAYGFi1s37GMVEoQ-45" target="39ZywAYGFi1s37GMVEoQ-50">
          <mxGeometry width="50" height="50" relative="1" as="geometry">
            <mxPoint x="207.63" y="763" as="sourcePoint" />
            <mxPoint x="295.63" y="764" as="targetPoint" />
          </mxGeometry>
        </mxCell>
        <mxCell id="39ZywAYGFi1s37GMVEoQ-60" value="&amp;lt;&amp;lt;include&amp;gt;&amp;gt;" style="text;html=1;align=center;verticalAlign=middle;whiteSpace=wrap;rounded=0;fillColor=#f8cecc;strokeColor=#b85450;" vertex="1" parent="1">
          <mxGeometry x="266.63" y="670" width="60" height="30" as="geometry" />
        </mxCell>
        <mxCell id="39ZywAYGFi1s37GMVEoQ-62" value="" style="endArrow=none;html=1;rounded=0;entryX=0;entryY=0.5;entryDx=0;entryDy=0;fillColor=#f8cecc;strokeColor=#b85450;" edge="1" parent="1" target="39ZywAYGFi1s37GMVEoQ-45">
          <mxGeometry width="50" height="50" relative="1" as="geometry">
            <mxPoint x="-452" y="630" as="sourcePoint" />
            <mxPoint x="221.63" y="257" as="targetPoint" />
          </mxGeometry>
        </mxCell>
        <mxCell id="39ZywAYGFi1s37GMVEoQ-64" value="Editar torneo" style="ellipse;whiteSpace=wrap;html=1;fillColor=#f8cecc;strokeColor=#b85450;" vertex="1" parent="1">
          <mxGeometry x="310.61" y="1380" width="140" height="70" as="geometry" />
        </mxCell>
        <mxCell id="39ZywAYGFi1s37GMVEoQ-69" value="" style="endArrow=classic;dashed=1;html=1;rounded=0;endFill=1;entryX=0.021;entryY=0.629;entryDx=0;entryDy=0;entryPerimeter=0;fillColor=#f8cecc;strokeColor=#b85450;" edge="1" parent="1" target="39ZywAYGFi1s37GMVEoQ-64">
          <mxGeometry width="50" height="50" relative="1" as="geometry">
            <mxPoint x="79.40312688302569" y="1644.083585653565" as="sourcePoint" />
            <mxPoint x="270.59" y="1394" as="targetPoint" />
          </mxGeometry>
        </mxCell>
        <mxCell id="39ZywAYGFi1s37GMVEoQ-70" value="&amp;lt;&amp;lt;include&amp;gt;&amp;gt;" style="text;html=1;align=center;verticalAlign=middle;whiteSpace=wrap;rounded=0;fillColor=#f8cecc;strokeColor=#b85450;" vertex="1" parent="1">
          <mxGeometry x="186.59" y="1450" width="60" height="30" as="geometry" />
        </mxCell>
        <mxCell id="39ZywAYGFi1s37GMVEoQ-87" value="Eliminar torneo" style="ellipse;whiteSpace=wrap;html=1;fillColor=#f8cecc;strokeColor=#b85450;" vertex="1" parent="1">
          <mxGeometry x="636.59" y="1380" width="140" height="70" as="geometry" />
        </mxCell>
        <mxCell id="39ZywAYGFi1s37GMVEoQ-88" value="" style="endArrow=classic;dashed=1;html=1;rounded=0;endFill=1;entryX=0.021;entryY=0.629;entryDx=0;entryDy=0;entryPerimeter=0;exitX=1;exitY=0.4;exitDx=0;exitDy=0;exitPerimeter=0;fillColor=#f8cecc;strokeColor=#b85450;" edge="1" parent="1" source="39ZywAYGFi1s37GMVEoQ-64">
          <mxGeometry width="50" height="50" relative="1" as="geometry">
            <mxPoint x="402.63" y="1629.97" as="sourcePoint" />
            <mxPoint x="636.63" y="1409.97" as="targetPoint" />
          </mxGeometry>
        </mxCell>
        <mxCell id="39ZywAYGFi1s37GMVEoQ-89" value="&amp;lt;&amp;lt;exclude&amp;gt;&amp;gt;" style="text;html=1;align=center;verticalAlign=middle;whiteSpace=wrap;rounded=0;fillColor=#f8cecc;strokeColor=#b85450;" vertex="1" parent="1">
          <mxGeometry x="511.57000000000005" y="1380" width="60" height="30" as="geometry" />
        </mxCell>
        <mxCell id="39ZywAYGFi1s37GMVEoQ-107" value="Iniciar sesi坦n" style="ellipse;whiteSpace=wrap;html=1;" vertex="1" parent="1">
          <mxGeometry x="43" y="855" width="140" height="70" as="geometry" />
        </mxCell>
        <mxCell id="39ZywAYGFi1s37GMVEoQ-108" value="Cerrar sesi坦n" style="ellipse;whiteSpace=wrap;html=1;" vertex="1" parent="1">
          <mxGeometry x="53" y="990" width="140" height="70" as="geometry" />
        </mxCell>
        <mxCell id="39ZywAYGFi1s37GMVEoQ-109" value="Verificar usuario" style="ellipse;whiteSpace=wrap;html=1;" vertex="1" parent="1">
          <mxGeometry x="363" y="820" width="140" height="70" as="geometry" />
        </mxCell>
        <mxCell id="39ZywAYGFi1s37GMVEoQ-110" value="Recuperar contrase単a" style="ellipse;whiteSpace=wrap;html=1;" vertex="1" parent="1">
          <mxGeometry x="658" y="820" width="140" height="70" as="geometry" />
        </mxCell>
        <mxCell id="39ZywAYGFi1s37GMVEoQ-111" value="Nuevo usuario" style="ellipse;whiteSpace=wrap;html=1;" vertex="1" parent="1">
          <mxGeometry x="358" y="900" width="140" height="70" as="geometry" />
        </mxCell>
        <mxCell id="39ZywAYGFi1s37GMVEoQ-112" value="" style="endArrow=none;html=1;rounded=0;entryX=0;entryY=0.643;entryDx=0;entryDy=0;entryPerimeter=0;" edge="1" target="39ZywAYGFi1s37GMVEoQ-107" parent="1">
          <mxGeometry width="50" height="50" relative="1" as="geometry">
            <mxPoint x="-475" y="1230" as="sourcePoint" />
            <mxPoint x="230.94000000000005" y="895" as="targetPoint" />
          </mxGeometry>
        </mxCell>
        <mxCell id="39ZywAYGFi1s37GMVEoQ-113" value="" style="endArrow=none;html=1;rounded=0;entryX=0.029;entryY=0.729;entryDx=0;entryDy=0;entryPerimeter=0;" edge="1" target="39ZywAYGFi1s37GMVEoQ-108" parent="1">
          <mxGeometry width="50" height="50" relative="1" as="geometry">
            <mxPoint x="-455" y="1260" as="sourcePoint" />
            <mxPoint x="228" y="1012.02" as="targetPoint" />
          </mxGeometry>
        </mxCell>
        <mxCell id="39ZywAYGFi1s37GMVEoQ-114" value="" style="endArrow=classic;dashed=1;html=1;rounded=0;entryX=0;entryY=0.5;entryDx=0;entryDy=0;endFill=1;" edge="1" source="39ZywAYGFi1s37GMVEoQ-107" target="39ZywAYGFi1s37GMVEoQ-109" parent="1">
          <mxGeometry width="50" height="50" relative="1" as="geometry">
            <mxPoint x="203" y="945" as="sourcePoint" />
            <mxPoint x="253" y="895" as="targetPoint" />
          </mxGeometry>
        </mxCell>
        <mxCell id="39ZywAYGFi1s37GMVEoQ-115" value="" style="endArrow=classic;dashed=1;html=1;rounded=0;entryX=0;entryY=0.5;entryDx=0;entryDy=0;endFill=1;exitX=0.964;exitY=0.7;exitDx=0;exitDy=0;exitPerimeter=0;" edge="1" source="39ZywAYGFi1s37GMVEoQ-107" target="39ZywAYGFi1s37GMVEoQ-111" parent="1">
          <mxGeometry width="50" height="50" relative="1" as="geometry">
            <mxPoint x="167" y="946" as="sourcePoint" />
            <mxPoint x="268" y="915" as="targetPoint" />
          </mxGeometry>
        </mxCell>
        <mxCell id="39ZywAYGFi1s37GMVEoQ-116" value="" style="endArrow=classic;dashed=1;html=1;rounded=0;entryX=0;entryY=0.5;entryDx=0;entryDy=0;endFill=1;exitX=1;exitY=0.5;exitDx=0;exitDy=0;" edge="1" source="39ZywAYGFi1s37GMVEoQ-109" target="39ZywAYGFi1s37GMVEoQ-110" parent="1">
          <mxGeometry width="50" height="50" relative="1" as="geometry">
            <mxPoint x="502" y="860.27" as="sourcePoint" />
            <mxPoint x="603" y="829.27" as="targetPoint" />
          </mxGeometry>
        </mxCell>
        <mxCell id="39ZywAYGFi1s37GMVEoQ-117" value="&amp;lt;&amp;lt;include&amp;gt;&amp;gt;" style="text;html=1;align=center;verticalAlign=middle;whiteSpace=wrap;rounded=0;" vertex="1" parent="1">
          <mxGeometry x="228" y="825" width="60" height="30" as="geometry" />
        </mxCell>
        <mxCell id="39ZywAYGFi1s37GMVEoQ-118" value="&amp;lt;&amp;lt;include&amp;gt;&amp;gt;" style="text;html=1;align=center;verticalAlign=middle;whiteSpace=wrap;rounded=0;" vertex="1" parent="1">
          <mxGeometry x="263" y="890" width="60" height="30" as="geometry" />
        </mxCell>
        <mxCell id="39ZywAYGFi1s37GMVEoQ-119" value="&amp;lt;&amp;lt;include&amp;gt;&amp;gt;" style="text;html=1;align=center;verticalAlign=middle;whiteSpace=wrap;rounded=0;" vertex="1" parent="1">
          <mxGeometry x="578" y="820" width="60" height="30" as="geometry" />
        </mxCell>
        <mxCell id="39ZywAYGFi1s37GMVEoQ-122" value="" style="endArrow=classic;dashed=1;html=1;rounded=0;endFill=1;exitX=0.986;exitY=0.386;exitDx=0;exitDy=0;exitPerimeter=0;entryX=-0.007;entryY=0.343;entryDx=0;entryDy=0;entryPerimeter=0;" edge="1" target="39ZywAYGFi1s37GMVEoQ-121" parent="1">
          <mxGeometry width="50" height="50" relative="1" as="geometry">
            <mxPoint x="261.03999999999996" y="942.0200000000004" as="sourcePoint" />
            <mxPoint x="397.02" y="915" as="targetPoint" />
          </mxGeometry>
        </mxCell>
        <mxCell id="39ZywAYGFi1s37GMVEoQ-124" value="Buscar equipo" style="ellipse;whiteSpace=wrap;html=1;" vertex="1" parent="1">
          <mxGeometry x="53" y="1105" width="140" height="70" as="geometry" />
        </mxCell>
        <mxCell id="39ZywAYGFi1s37GMVEoQ-125" value="Seleccionar equipo" style="ellipse;whiteSpace=wrap;html=1;" vertex="1" parent="1">
          <mxGeometry x="323.98" y="1107" width="140" height="70" as="geometry" />
        </mxCell>
        <mxCell id="39ZywAYGFi1s37GMVEoQ-127" value="" style="endArrow=classic;dashed=1;html=1;rounded=0;endFill=1;exitX=1.007;exitY=0.329;exitDx=0;exitDy=0;exitPerimeter=0;entryX=0;entryY=0.5;entryDx=0;entryDy=0;" edge="1" target="39ZywAYGFi1s37GMVEoQ-125" parent="1">
          <mxGeometry width="50" height="50" relative="1" as="geometry">
            <mxPoint x="193.01999999999998" y="1148" as="sourcePoint" />
            <mxPoint x="281.02" y="1149" as="targetPoint" />
          </mxGeometry>
        </mxCell>
        <mxCell id="39ZywAYGFi1s37GMVEoQ-128" value="&amp;lt;&amp;lt;include&amp;gt;&amp;gt;" style="text;html=1;align=center;verticalAlign=middle;whiteSpace=wrap;rounded=0;" vertex="1" parent="1">
          <mxGeometry x="243" y="1107" width="60" height="30" as="geometry" />
        </mxCell>
        <mxCell id="39ZywAYGFi1s37GMVEoQ-132" value="" style="endArrow=none;html=1;rounded=0;entryX=0;entryY=0.4;entryDx=0;entryDy=0;entryPerimeter=0;" edge="1" target="39ZywAYGFi1s37GMVEoQ-124" parent="1">
          <mxGeometry width="50" height="50" relative="1" as="geometry">
            <mxPoint x="-435" y="1280" as="sourcePoint" />
            <mxPoint x="218" y="1192.02" as="targetPoint" />
          </mxGeometry>
        </mxCell>
        <mxCell id="39ZywAYGFi1s37GMVEoQ-133" value="Buscar jugador" style="ellipse;whiteSpace=wrap;html=1;" vertex="1" parent="1">
          <mxGeometry x="48" y="1205" width="140" height="70" as="geometry" />
        </mxCell>
        <mxCell id="39ZywAYGFi1s37GMVEoQ-134" value="Seleccionar jugador" style="ellipse;whiteSpace=wrap;html=1;" vertex="1" parent="1">
          <mxGeometry x="321.98" y="1215" width="140" height="70" as="geometry" />
        </mxCell>
        <mxCell id="39ZywAYGFi1s37GMVEoQ-136" value="" style="endArrow=classic;dashed=1;html=1;rounded=0;endFill=1;exitX=1.007;exitY=0.6;exitDx=0;exitDy=0;exitPerimeter=0;entryX=-0.007;entryY=0.343;entryDx=0;entryDy=0;entryPerimeter=0;" edge="1" source="39ZywAYGFi1s37GMVEoQ-133" parent="1">
          <mxGeometry width="50" height="50" relative="1" as="geometry">
            <mxPoint x="232" y="1248" as="sourcePoint" />
            <mxPoint x="320" y="1249" as="targetPoint" />
          </mxGeometry>
        </mxCell>
        <mxCell id="39ZywAYGFi1s37GMVEoQ-137" value="&amp;lt;&amp;lt;include&amp;gt;&amp;gt;" style="text;html=1;align=center;verticalAlign=middle;whiteSpace=wrap;rounded=0;" vertex="1" parent="1">
          <mxGeometry x="241" y="1215" width="60" height="30" as="geometry" />
        </mxCell>
        <mxCell id="39ZywAYGFi1s37GMVEoQ-140" value="" style="endArrow=none;html=1;rounded=0;entryX=0.007;entryY=0.643;entryDx=0;entryDy=0;entryPerimeter=0;" edge="1" target="39ZywAYGFi1s37GMVEoQ-133" parent="1">
          <mxGeometry width="50" height="50" relative="1" as="geometry">
            <mxPoint x="-435" y="1310" as="sourcePoint" />
            <mxPoint x="243" y="1184" as="targetPoint" />
          </mxGeometry>
        </mxCell>
        <mxCell id="39ZywAYGFi1s37GMVEoQ-158" value="Buscar torneo" style="ellipse;whiteSpace=wrap;html=1;" vertex="1" parent="1">
          <mxGeometry x="-12" y="1650" width="140" height="70" as="geometry" />
        </mxCell>
        <mxCell id="39ZywAYGFi1s37GMVEoQ-160" value="Mostrar clasificaci坦n" style="ellipse;whiteSpace=wrap;html=1;" vertex="1" parent="1">
          <mxGeometry x="322.02000000000004" y="1480" width="140" height="70" as="geometry" />
        </mxCell>
        <mxCell id="39ZywAYGFi1s37GMVEoQ-161" value="Seleccionar partido" style="ellipse;whiteSpace=wrap;html=1;" vertex="1" parent="1">
          <mxGeometry x="322.02000000000004" y="1560" width="140" height="70" as="geometry" />
        </mxCell>
        <mxCell id="39ZywAYGFi1s37GMVEoQ-162" value="Seleccionar equipo" style="ellipse;whiteSpace=wrap;html=1;" vertex="1" parent="1">
          <mxGeometry x="322.02000000000004" y="1650" width="140" height="70" as="geometry" />
        </mxCell>
        <mxCell id="39ZywAYGFi1s37GMVEoQ-163" value="Seleccionar jugador" style="ellipse;whiteSpace=wrap;html=1;" vertex="1" parent="1">
          <mxGeometry x="322.02000000000004" y="1740" width="140" height="70" as="geometry" />
        </mxCell>
        <mxCell id="39ZywAYGFi1s37GMVEoQ-166" value="" style="endArrow=classic;dashed=1;html=1;rounded=0;endFill=1;exitX=0.921;exitY=0.186;exitDx=0;exitDy=0;exitPerimeter=0;entryX=0.028;entryY=0.643;entryDx=0;entryDy=0;entryPerimeter=0;" edge="1" source="39ZywAYGFi1s37GMVEoQ-158" target="39ZywAYGFi1s37GMVEoQ-160" parent="1">
          <mxGeometry width="50" height="50" relative="1" as="geometry">
            <mxPoint x="193.98000000000002" y="1503" as="sourcePoint" />
            <mxPoint x="281.98" y="1504" as="targetPoint" />
          </mxGeometry>
        </mxCell>
        <mxCell id="39ZywAYGFi1s37GMVEoQ-167" value="&amp;lt;&amp;lt;include&amp;gt;&amp;gt;" style="text;html=1;align=center;verticalAlign=middle;whiteSpace=wrap;rounded=0;" vertex="1" parent="1">
          <mxGeometry x="222" y="1525" width="60" height="30" as="geometry" />
        </mxCell>
        <mxCell id="39ZywAYGFi1s37GMVEoQ-168" value="" style="endArrow=classic;dashed=1;html=1;rounded=0;endFill=1;exitX=0.979;exitY=0.357;exitDx=0;exitDy=0;exitPerimeter=0;entryX=0;entryY=0.5;entryDx=0;entryDy=0;" edge="1" source="39ZywAYGFi1s37GMVEoQ-158" target="39ZywAYGFi1s37GMVEoQ-161" parent="1">
          <mxGeometry width="50" height="50" relative="1" as="geometry">
            <mxPoint x="193.98000000000002" y="1583" as="sourcePoint" />
            <mxPoint x="281.98" y="1584" as="targetPoint" />
          </mxGeometry>
        </mxCell>
        <mxCell id="39ZywAYGFi1s37GMVEoQ-169" value="&amp;lt;&amp;lt;include&amp;gt;&amp;gt;" style="text;html=1;align=center;verticalAlign=middle;whiteSpace=wrap;rounded=0;" vertex="1" parent="1">
          <mxGeometry x="238" y="1580" width="60" height="30" as="geometry" />
        </mxCell>
        <mxCell id="39ZywAYGFi1s37GMVEoQ-170" value="" style="endArrow=classic;dashed=1;html=1;rounded=0;endFill=1;entryX=0;entryY=0.5;entryDx=0;entryDy=0;" edge="1" source="39ZywAYGFi1s37GMVEoQ-158" target="39ZywAYGFi1s37GMVEoQ-162" parent="1">
          <mxGeometry width="50" height="50" relative="1" as="geometry">
            <mxPoint x="193.98000000000002" y="1673" as="sourcePoint" />
            <mxPoint x="281.98" y="1674" as="targetPoint" />
          </mxGeometry>
        </mxCell>
        <mxCell id="39ZywAYGFi1s37GMVEoQ-171" value="&amp;lt;&amp;lt;include&amp;gt;&amp;gt;" style="text;html=1;align=center;verticalAlign=middle;whiteSpace=wrap;rounded=0;" vertex="1" parent="1">
          <mxGeometry x="242.02000000000004" y="1650" width="60" height="30" as="geometry" />
        </mxCell>
        <mxCell id="39ZywAYGFi1s37GMVEoQ-172" value="" style="endArrow=classic;dashed=1;html=1;rounded=0;endFill=1;entryX=0;entryY=0.5;entryDx=0;entryDy=0;" edge="1" source="39ZywAYGFi1s37GMVEoQ-158" target="39ZywAYGFi1s37GMVEoQ-163" parent="1">
          <mxGeometry width="50" height="50" relative="1" as="geometry">
            <mxPoint x="189.98000000000002" y="1763" as="sourcePoint" />
            <mxPoint x="277.98" y="1764" as="targetPoint" />
          </mxGeometry>
        </mxCell>
        <mxCell id="39ZywAYGFi1s37GMVEoQ-173" value="&amp;lt;&amp;lt;include&amp;gt;&amp;gt;" style="text;html=1;align=center;verticalAlign=middle;whiteSpace=wrap;rounded=0;" vertex="1" parent="1">
          <mxGeometry x="242.01999999999998" y="1720" width="60" height="30" as="geometry" />
        </mxCell>
        <mxCell id="39ZywAYGFi1s37GMVEoQ-174" value="" style="endArrow=none;html=1;rounded=0;entryX=0.014;entryY=0.386;entryDx=0;entryDy=0;entryPerimeter=0;" edge="1" target="39ZywAYGFi1s37GMVEoQ-158" parent="1">
          <mxGeometry width="50" height="50" relative="1" as="geometry">
            <mxPoint x="-455" y="1340" as="sourcePoint" />
            <mxPoint x="68.06" y="1710" as="targetPoint" />
          </mxGeometry>
        </mxCell>
        <mxCell id="39ZywAYGFi1s37GMVEoQ-175" value="Estad鱈asticas torneo" style="ellipse;whiteSpace=wrap;html=1;" vertex="1" parent="1">
          <mxGeometry x="322.02000000000004" y="1830" width="140" height="70" as="geometry" />
        </mxCell>
        <mxCell id="39ZywAYGFi1s37GMVEoQ-176" value="Ver premios" style="ellipse;whiteSpace=wrap;html=1;" vertex="1" parent="1">
          <mxGeometry x="322.02000000000004" y="1920" width="140" height="70" as="geometry" />
        </mxCell>
        <mxCell id="39ZywAYGFi1s37GMVEoQ-177" value="" style="endArrow=classic;dashed=1;html=1;rounded=0;endFill=1;entryX=0.028;entryY=0.314;entryDx=0;entryDy=0;entryPerimeter=0;exitX=1;exitY=1;exitDx=0;exitDy=0;" edge="1" source="39ZywAYGFi1s37GMVEoQ-158" target="39ZywAYGFi1s37GMVEoQ-175" parent="1">
          <mxGeometry width="50" height="50" relative="1" as="geometry">
            <mxPoint x="101.98000000000002" y="1740.2799999999997" as="sourcePoint" />
            <mxPoint x="307.98" y="1810.2799999999997" as="targetPoint" />
          </mxGeometry>
        </mxCell>
        <mxCell id="39ZywAYGFi1s37GMVEoQ-178" value="" style="endArrow=classic;dashed=1;html=1;rounded=0;endFill=1;entryX=0.014;entryY=0.386;entryDx=0;entryDy=0;exitX=0.671;exitY=1;exitDx=0;exitDy=0;exitPerimeter=0;entryPerimeter=0;" edge="1" source="39ZywAYGFi1s37GMVEoQ-158" target="39ZywAYGFi1s37GMVEoQ-176" parent="1">
          <mxGeometry width="50" height="50" relative="1" as="geometry">
            <mxPoint x="76" y="1790" as="sourcePoint" />
            <mxPoint x="282" y="1860" as="targetPoint" />
          </mxGeometry>
        </mxCell>
        <mxCell id="39ZywAYGFi1s37GMVEoQ-179" value="&amp;lt;&amp;lt;include&amp;gt;&amp;gt;" style="text;html=1;align=center;verticalAlign=middle;whiteSpace=wrap;rounded=0;" vertex="1" parent="1">
          <mxGeometry x="242.01999999999998" y="1780" width="60" height="30" as="geometry" />
        </mxCell>
        <mxCell id="39ZywAYGFi1s37GMVEoQ-180" value="&amp;lt;&amp;lt;include&amp;gt;&amp;gt;" style="text;html=1;align=center;verticalAlign=middle;whiteSpace=wrap;rounded=0;" vertex="1" parent="1">
          <mxGeometry x="242.01999999999998" y="1850" width="60" height="30" as="geometry" />
        </mxCell>
        <mxCell id="39ZywAYGFi1s37GMVEoQ-184" value="Estad鱈sticas partido" style="ellipse;whiteSpace=wrap;html=1;" vertex="1" parent="1">
          <mxGeometry x="638" y="1555" width="140" height="70" as="geometry" />
        </mxCell>
        <mxCell id="39ZywAYGFi1s37GMVEoQ-185" value="Estad鱈sticas equipo" style="ellipse;whiteSpace=wrap;html=1;" vertex="1" parent="1">
          <mxGeometry x="638" y="1650" width="140" height="70" as="geometry" />
        </mxCell>
        <mxCell id="39ZywAYGFi1s37GMVEoQ-186" value="Estad鱈sticas jugador" style="ellipse;whiteSpace=wrap;html=1;" vertex="1" parent="1">
          <mxGeometry x="638" y="1740" width="140" height="70" as="geometry" />
        </mxCell>
        <mxCell id="39ZywAYGFi1s37GMVEoQ-187" value="" style="endArrow=classic;dashed=1;html=1;rounded=0;endFill=1;entryX=0;entryY=0.6;entryDx=0;entryDy=0;exitX=1;exitY=0.5;exitDx=0;exitDy=0;entryPerimeter=0;" edge="1" source="39ZywAYGFi1s37GMVEoQ-161" target="39ZywAYGFi1s37GMVEoQ-184" parent="1">
          <mxGeometry width="50" height="50" relative="1" as="geometry">
            <mxPoint x="453" y="1595" as="sourcePoint" />
            <mxPoint x="647" y="1595" as="targetPoint" />
          </mxGeometry>
        </mxCell>
        <mxCell id="39ZywAYGFi1s37GMVEoQ-188" value="&amp;lt;&amp;lt;include&amp;gt;&amp;gt;" style="text;html=1;align=center;verticalAlign=middle;whiteSpace=wrap;rounded=0;" vertex="1" parent="1">
          <mxGeometry x="538" y="1555" width="60" height="30" as="geometry" />
        </mxCell>
        <mxCell id="39ZywAYGFi1s37GMVEoQ-189" value="" style="endArrow=classic;dashed=1;html=1;rounded=0;endFill=1;entryX=0;entryY=0.6;entryDx=0;entryDy=0;exitX=1;exitY=0.5;exitDx=0;exitDy=0;entryPerimeter=0;" edge="1" parent="1">
          <mxGeometry width="50" height="50" relative="1" as="geometry">
            <mxPoint x="462" y="1770" as="sourcePoint" />
            <mxPoint x="638" y="1772" as="targetPoint" />
          </mxGeometry>
        </mxCell>
        <mxCell id="39ZywAYGFi1s37GMVEoQ-190" value="&amp;lt;&amp;lt;include&amp;gt;&amp;gt;" style="text;html=1;align=center;verticalAlign=middle;whiteSpace=wrap;rounded=0;" vertex="1" parent="1">
          <mxGeometry x="538" y="1730" width="60" height="30" as="geometry" />
        </mxCell>
        <mxCell id="39ZywAYGFi1s37GMVEoQ-191" value="" style="endArrow=classic;dashed=1;html=1;rounded=0;endFill=1;entryX=0;entryY=0.6;entryDx=0;entryDy=0;exitX=1;exitY=0.5;exitDx=0;exitDy=0;entryPerimeter=0;" edge="1" parent="1">
          <mxGeometry width="50" height="50" relative="1" as="geometry">
            <mxPoint x="462" y="1684" as="sourcePoint" />
            <mxPoint x="638" y="1686" as="targetPoint" />
          </mxGeometry>
        </mxCell>
        <mxCell id="39ZywAYGFi1s37GMVEoQ-192" value="&amp;lt;&amp;lt;include&amp;gt;&amp;gt;" style="text;html=1;align=center;verticalAlign=middle;whiteSpace=wrap;rounded=0;" vertex="1" parent="1">
          <mxGeometry x="538" y="1650" width="60" height="30" as="geometry" />
        </mxCell>
        <mxCell id="39ZywAYGFi1s37GMVEoQ-193" value="" style="endArrow=none;html=1;rounded=0;fillColor=#f8cecc;strokeColor=#b85450;" edge="1" parent="1">
          <mxGeometry width="50" height="50" relative="1" as="geometry">
            <mxPoint x="-442" y="650" as="sourcePoint" />
            <mxPoint x="58" y="1130" as="targetPoint" />
          </mxGeometry>
        </mxCell>
        <mxCell id="39ZywAYGFi1s37GMVEoQ-194" value="" style="endArrow=none;html=1;rounded=0;fillColor=#f8cecc;strokeColor=#b85450;" edge="1" parent="1" target="39ZywAYGFi1s37GMVEoQ-158">
          <mxGeometry width="50" height="50" relative="1" as="geometry">
            <mxPoint x="-482" y="690" as="sourcePoint" />
            <mxPoint x="16.629999999999995" y="765" as="targetPoint" />
          </mxGeometry>
        </mxCell>
        <mxCell id="39ZywAYGFi1s37GMVEoQ-197" value="" style="endArrow=none;html=1;rounded=0;entryX=-0.004;entryY=0.331;entryDx=0;entryDy=0;fillColor=#f8cecc;strokeColor=#b85450;entryPerimeter=0;" edge="1" parent="1" target="39ZywAYGFi1s37GMVEoQ-133">
          <mxGeometry width="50" height="50" relative="1" as="geometry">
            <mxPoint x="-452" y="680" as="sourcePoint" />
            <mxPoint x="-3" y="710" as="targetPoint" />
          </mxGeometry>
        </mxCell>
        <mxCell id="39ZywAYGFi1s37GMVEoQ-199" value="Sistema" style="shape=umlActor;verticalLabelPosition=bottom;verticalAlign=top;html=1;" vertex="1" parent="1">
          <mxGeometry x="-790" y="920" width="30" height="60" as="geometry" />
        </mxCell>
        <mxCell id="39ZywAYGFi1s37GMVEoQ-201" value="" style="endArrow=none;html=1;rounded=0;" edge="1" parent="1">
          <mxGeometry width="50" height="50" relative="1" as="geometry">
            <mxPoint x="-740" y="900" as="sourcePoint" />
            <mxPoint x="-550" y="670" as="targetPoint" />
          </mxGeometry>
        </mxCell>
        <mxCell id="39ZywAYGFi1s37GMVEoQ-202" value="" style="endArrow=none;html=1;rounded=0;" edge="1" parent="1">
          <mxGeometry width="50" height="50" relative="1" as="geometry">
            <mxPoint x="-740" y="990" as="sourcePoint" />
            <mxPoint x="-520" y="1250" as="targetPoint" />
          </mxGeometry>
        </mxCell>
        <mxCell id="39ZywAYGFi1s37GMVEoQ-219" value="Usuario" style="swimlane;fontStyle=1;align=center;verticalAlign=top;childLayout=stackLayout;horizontal=1;startSize=26;horizontalStack=0;resizeParent=1;resizeParentMax=0;resizeLast=0;collapsible=1;marginBottom=0;whiteSpace=wrap;html=1;" vertex="1" parent="1">
          <mxGeometry x="12" y="2740" width="300" height="398" as="geometry" />
        </mxCell>
        <mxCell id="39ZywAYGFi1s37GMVEoQ-262" value="- idUsuario : String" style="text;strokeColor=none;fillColor=none;align=left;verticalAlign=top;spacingLeft=4;spacingRight=4;overflow=hidden;rotatable=0;points=[[0,0.5],[1,0.5]];portConstraint=eastwest;whiteSpace=wrap;html=1;" vertex="1" parent="39ZywAYGFi1s37GMVEoQ-219">
          <mxGeometry y="26" width="300" height="26" as="geometry" />
        </mxCell>
        <mxCell id="39ZywAYGFi1s37GMVEoQ-220" value="- nombre : String" style="text;strokeColor=none;fillColor=none;align=left;verticalAlign=top;spacingLeft=4;spacingRight=4;overflow=hidden;rotatable=0;points=[[0,0.5],[1,0.5]];portConstraint=eastwest;whiteSpace=wrap;html=1;" vertex="1" parent="39ZywAYGFi1s37GMVEoQ-219">
          <mxGeometry y="52" width="300" height="26" as="geometry" />
        </mxCell>
        <mxCell id="39ZywAYGFi1s37GMVEoQ-227" value="- apellidos: String" style="text;strokeColor=none;fillColor=none;align=left;verticalAlign=top;spacingLeft=4;spacingRight=4;overflow=hidden;rotatable=0;points=[[0,0.5],[1,0.5]];portConstraint=eastwest;whiteSpace=wrap;html=1;" vertex="1" parent="39ZywAYGFi1s37GMVEoQ-219">
          <mxGeometry y="78" width="300" height="26" as="geometry" />
        </mxCell>
        <mxCell id="39ZywAYGFi1s37GMVEoQ-226" value="- correoE: String" style="text;strokeColor=none;fillColor=none;align=left;verticalAlign=top;spacingLeft=4;spacingRight=4;overflow=hidden;rotatable=0;points=[[0,0.5],[1,0.5]];portConstraint=eastwest;whiteSpace=wrap;html=1;" vertex="1" parent="39ZywAYGFi1s37GMVEoQ-219">
          <mxGeometry y="104" width="300" height="26" as="geometry" />
        </mxCell>
        <mxCell id="39ZywAYGFi1s37GMVEoQ-225" value="- edad: int" style="text;strokeColor=none;fillColor=none;align=left;verticalAlign=top;spacingLeft=4;spacingRight=4;overflow=hidden;rotatable=0;points=[[0,0.5],[1,0.5]];portConstraint=eastwest;whiteSpace=wrap;html=1;" vertex="1" parent="39ZywAYGFi1s37GMVEoQ-219">
          <mxGeometry y="130" width="300" height="26" as="geometry" />
        </mxCell>
        <mxCell id="39ZywAYGFi1s37GMVEoQ-224" value="- genero: String" style="text;strokeColor=none;fillColor=none;align=left;verticalAlign=top;spacingLeft=4;spacingRight=4;overflow=hidden;rotatable=0;points=[[0,0.5],[1,0.5]];portConstraint=eastwest;whiteSpace=wrap;html=1;" vertex="1" parent="39ZywAYGFi1s37GMVEoQ-219">
          <mxGeometry y="156" width="300" height="26" as="geometry" />
        </mxCell>
        <mxCell id="39ZywAYGFi1s37GMVEoQ-221" value="" style="line;strokeWidth=1;fillColor=none;align=left;verticalAlign=middle;spacingTop=-1;spacingLeft=3;spacingRight=3;rotatable=0;labelPosition=right;points=[];portConstraint=eastwest;strokeColor=inherit;" vertex="1" parent="39ZywAYGFi1s37GMVEoQ-219">
          <mxGeometry y="182" width="300" height="8" as="geometry" />
        </mxCell>
        <mxCell id="39ZywAYGFi1s37GMVEoQ-222" value="&amp;lt;&amp;lt;constructor&amp;gt;&amp;gt; + Usuario()" style="text;strokeColor=none;fillColor=none;align=left;verticalAlign=top;spacingLeft=4;spacingRight=4;overflow=hidden;rotatable=0;points=[[0,0.5],[1,0.5]];portConstraint=eastwest;whiteSpace=wrap;html=1;" vertex="1" parent="39ZywAYGFi1s37GMVEoQ-219">
          <mxGeometry y="190" width="300" height="26" as="geometry" />
        </mxCell>
        <mxCell id="39ZywAYGFi1s37GMVEoQ-237" value="+ Getters &amp;amp; setters" style="text;strokeColor=none;fillColor=none;align=left;verticalAlign=top;spacingLeft=4;spacingRight=4;overflow=hidden;rotatable=0;points=[[0,0.5],[1,0.5]];portConstraint=eastwest;whiteSpace=wrap;html=1;" vertex="1" parent="39ZywAYGFi1s37GMVEoQ-219">
          <mxGeometry y="216" width="300" height="26" as="geometry" />
        </mxCell>
        <mxCell id="39ZywAYGFi1s37GMVEoQ-240" value="+ ToString" style="text;strokeColor=none;fillColor=none;align=left;verticalAlign=top;spacingLeft=4;spacingRight=4;overflow=hidden;rotatable=0;points=[[0,0.5],[1,0.5]];portConstraint=eastwest;whiteSpace=wrap;html=1;" vertex="1" parent="39ZywAYGFi1s37GMVEoQ-219">
          <mxGeometry y="242" width="300" height="26" as="geometry" />
        </mxCell>
        <mxCell id="39ZywAYGFi1s37GMVEoQ-239" value="+ Equals &amp;amp; HashCode" style="text;strokeColor=none;fillColor=none;align=left;verticalAlign=top;spacingLeft=4;spacingRight=4;overflow=hidden;rotatable=0;points=[[0,0.5],[1,0.5]];portConstraint=eastwest;whiteSpace=wrap;html=1;" vertex="1" parent="39ZywAYGFi1s37GMVEoQ-219">
          <mxGeometry y="268" width="300" height="26" as="geometry" />
        </mxCell>
        <mxCell id="39ZywAYGFi1s37GMVEoQ-242" value="+ iniciarSesion()" style="text;strokeColor=none;fillColor=none;align=left;verticalAlign=top;spacingLeft=4;spacingRight=4;overflow=hidden;rotatable=0;points=[[0,0.5],[1,0.5]];portConstraint=eastwest;whiteSpace=wrap;html=1;" vertex="1" parent="39ZywAYGFi1s37GMVEoQ-219">
          <mxGeometry y="294" width="300" height="26" as="geometry" />
        </mxCell>
        <mxCell id="39ZywAYGFi1s37GMVEoQ-243" value="+ cerrarSesion()" style="text;strokeColor=none;fillColor=none;align=left;verticalAlign=top;spacingLeft=4;spacingRight=4;overflow=hidden;rotatable=0;points=[[0,0.5],[1,0.5]];portConstraint=eastwest;whiteSpace=wrap;html=1;" vertex="1" parent="39ZywAYGFi1s37GMVEoQ-219">
          <mxGeometry y="320" width="300" height="26" as="geometry" />
        </mxCell>
        <mxCell id="39ZywAYGFi1s37GMVEoQ-245" value="+ buscarEquipo" style="text;strokeColor=none;fillColor=none;align=left;verticalAlign=top;spacingLeft=4;spacingRight=4;overflow=hidden;rotatable=0;points=[[0,0.5],[1,0.5]];portConstraint=eastwest;whiteSpace=wrap;html=1;" vertex="1" parent="39ZywAYGFi1s37GMVEoQ-219">
          <mxGeometry y="346" width="300" height="26" as="geometry" />
        </mxCell>
        <mxCell id="39ZywAYGFi1s37GMVEoQ-246" value="+ buscarTorneo" style="text;strokeColor=none;fillColor=none;align=left;verticalAlign=top;spacingLeft=4;spacingRight=4;overflow=hidden;rotatable=0;points=[[0,0.5],[1,0.5]];portConstraint=eastwest;whiteSpace=wrap;html=1;" vertex="1" parent="39ZywAYGFi1s37GMVEoQ-219">
          <mxGeometry y="372" width="300" height="26" as="geometry" />
        </mxCell>
        <mxCell id="39ZywAYGFi1s37GMVEoQ-247" value="Administrador" style="swimlane;fontStyle=1;align=center;verticalAlign=top;childLayout=stackLayout;horizontal=1;startSize=26;horizontalStack=0;resizeParent=1;resizeParentMax=0;resizeLast=0;collapsible=1;marginBottom=0;whiteSpace=wrap;html=1;" vertex="1" parent="1">
          <mxGeometry x="12" y="2230" width="300" height="372" as="geometry" />
        </mxCell>
        <mxCell id="39ZywAYGFi1s37GMVEoQ-248" value="- idAdmin : String" style="text;strokeColor=none;fillColor=none;align=left;verticalAlign=top;spacingLeft=4;spacingRight=4;overflow=hidden;rotatable=0;points=[[0,0.5],[1,0.5]];portConstraint=eastwest;whiteSpace=wrap;html=1;" vertex="1" parent="39ZywAYGFi1s37GMVEoQ-247">
          <mxGeometry y="26" width="300" height="26" as="geometry" />
        </mxCell>
        <mxCell id="39ZywAYGFi1s37GMVEoQ-263" value="- nombre: String" style="text;strokeColor=none;fillColor=none;align=left;verticalAlign=top;spacingLeft=4;spacingRight=4;overflow=hidden;rotatable=0;points=[[0,0.5],[1,0.5]];portConstraint=eastwest;whiteSpace=wrap;html=1;" vertex="1" parent="39ZywAYGFi1s37GMVEoQ-247">
          <mxGeometry y="52" width="300" height="26" as="geometry" />
        </mxCell>
        <mxCell id="39ZywAYGFi1s37GMVEoQ-249" value="- apellidos: String" style="text;strokeColor=none;fillColor=none;align=left;verticalAlign=top;spacingLeft=4;spacingRight=4;overflow=hidden;rotatable=0;points=[[0,0.5],[1,0.5]];portConstraint=eastwest;whiteSpace=wrap;html=1;" vertex="1" parent="39ZywAYGFi1s37GMVEoQ-247">
          <mxGeometry y="78" width="300" height="26" as="geometry" />
        </mxCell>
        <mxCell id="39ZywAYGFi1s37GMVEoQ-250" value="- correoe: String" style="text;strokeColor=none;fillColor=none;align=left;verticalAlign=top;spacingLeft=4;spacingRight=4;overflow=hidden;rotatable=0;points=[[0,0.5],[1,0.5]];portConstraint=eastwest;whiteSpace=wrap;html=1;" vertex="1" parent="39ZywAYGFi1s37GMVEoQ-247">
          <mxGeometry y="104" width="300" height="26" as="geometry" />
        </mxCell>
        <mxCell id="39ZywAYGFi1s37GMVEoQ-253" value="" style="line;strokeWidth=1;fillColor=none;align=left;verticalAlign=middle;spacingTop=-1;spacingLeft=3;spacingRight=3;rotatable=0;labelPosition=right;points=[];portConstraint=eastwest;strokeColor=inherit;" vertex="1" parent="39ZywAYGFi1s37GMVEoQ-247">
          <mxGeometry y="130" width="300" height="8" as="geometry" />
        </mxCell>
        <mxCell id="39ZywAYGFi1s37GMVEoQ-254" value="&amp;lt;&amp;lt;constructor&amp;gt;&amp;gt;+ Administrador()" style="text;strokeColor=none;fillColor=none;align=left;verticalAlign=top;spacingLeft=4;spacingRight=4;overflow=hidden;rotatable=0;points=[[0,0.5],[1,0.5]];portConstraint=eastwest;whiteSpace=wrap;html=1;" vertex="1" parent="39ZywAYGFi1s37GMVEoQ-247">
          <mxGeometry y="138" width="300" height="26" as="geometry" />
        </mxCell>
        <mxCell id="39ZywAYGFi1s37GMVEoQ-255" value="+ Getters &amp;amp; setters" style="text;strokeColor=none;fillColor=none;align=left;verticalAlign=top;spacingLeft=4;spacingRight=4;overflow=hidden;rotatable=0;points=[[0,0.5],[1,0.5]];portConstraint=eastwest;whiteSpace=wrap;html=1;" vertex="1" parent="39ZywAYGFi1s37GMVEoQ-247">
          <mxGeometry y="164" width="300" height="26" as="geometry" />
        </mxCell>
        <mxCell id="39ZywAYGFi1s37GMVEoQ-256" value="+ ToString" style="text;strokeColor=none;fillColor=none;align=left;verticalAlign=top;spacingLeft=4;spacingRight=4;overflow=hidden;rotatable=0;points=[[0,0.5],[1,0.5]];portConstraint=eastwest;whiteSpace=wrap;html=1;" vertex="1" parent="39ZywAYGFi1s37GMVEoQ-247">
          <mxGeometry y="190" width="300" height="26" as="geometry" />
        </mxCell>
        <mxCell id="39ZywAYGFi1s37GMVEoQ-257" value="+ Equals &amp;amp; HashCode" style="text;strokeColor=none;fillColor=none;align=left;verticalAlign=top;spacingLeft=4;spacingRight=4;overflow=hidden;rotatable=0;points=[[0,0.5],[1,0.5]];portConstraint=eastwest;whiteSpace=wrap;html=1;" vertex="1" parent="39ZywAYGFi1s37GMVEoQ-247">
          <mxGeometry y="216" width="300" height="26" as="geometry" />
        </mxCell>
        <mxCell id="39ZywAYGFi1s37GMVEoQ-258" value="+ registrarEquipo()" style="text;strokeColor=none;fillColor=none;align=left;verticalAlign=top;spacingLeft=4;spacingRight=4;overflow=hidden;rotatable=0;points=[[0,0.5],[1,0.5]];portConstraint=eastwest;whiteSpace=wrap;html=1;" vertex="1" parent="39ZywAYGFi1s37GMVEoQ-247">
          <mxGeometry y="242" width="300" height="26" as="geometry" />
        </mxCell>
        <mxCell id="39ZywAYGFi1s37GMVEoQ-259" value="+ buscarEquipo()" style="text;strokeColor=none;fillColor=none;align=left;verticalAlign=top;spacingLeft=4;spacingRight=4;overflow=hidden;rotatable=0;points=[[0,0.5],[1,0.5]];portConstraint=eastwest;whiteSpace=wrap;html=1;" vertex="1" parent="39ZywAYGFi1s37GMVEoQ-247">
          <mxGeometry y="268" width="300" height="26" as="geometry" />
        </mxCell>
        <mxCell id="39ZywAYGFi1s37GMVEoQ-260" value="+ buscarJugador()" style="text;strokeColor=none;fillColor=none;align=left;verticalAlign=top;spacingLeft=4;spacingRight=4;overflow=hidden;rotatable=0;points=[[0,0.5],[1,0.5]];portConstraint=eastwest;whiteSpace=wrap;html=1;" vertex="1" parent="39ZywAYGFi1s37GMVEoQ-247">
          <mxGeometry y="294" width="300" height="26" as="geometry" />
        </mxCell>
        <mxCell id="39ZywAYGFi1s37GMVEoQ-266" value="+ crearTorneo" style="text;strokeColor=none;fillColor=none;align=left;verticalAlign=top;spacingLeft=4;spacingRight=4;overflow=hidden;rotatable=0;points=[[0,0.5],[1,0.5]];portConstraint=eastwest;whiteSpace=wrap;html=1;" vertex="1" parent="39ZywAYGFi1s37GMVEoQ-247">
          <mxGeometry y="320" width="300" height="26" as="geometry" />
        </mxCell>
        <mxCell id="39ZywAYGFi1s37GMVEoQ-265" value="+ buscarTorneo" style="text;strokeColor=none;fillColor=none;align=left;verticalAlign=top;spacingLeft=4;spacingRight=4;overflow=hidden;rotatable=0;points=[[0,0.5],[1,0.5]];portConstraint=eastwest;whiteSpace=wrap;html=1;" vertex="1" parent="39ZywAYGFi1s37GMVEoQ-247">
          <mxGeometry y="346" width="300" height="26" as="geometry" />
        </mxCell>
        <mxCell id="39ZywAYGFi1s37GMVEoQ-267" value="" style="endArrow=none;html=1;rounded=0;entryX=0.505;entryY=1.092;entryDx=0;entryDy=0;entryPerimeter=0;exitX=0.5;exitY=0;exitDx=0;exitDy=0;" edge="1" parent="1" source="39ZywAYGFi1s37GMVEoQ-219" target="39ZywAYGFi1s37GMVEoQ-265">
          <mxGeometry width="50" height="50" relative="1" as="geometry">
            <mxPoint x="-168" y="2520" as="sourcePoint" />
            <mxPoint x="-118" y="2470" as="targetPoint" />
          </mxGeometry>
        </mxCell>
        <mxCell id="39ZywAYGFi1s37GMVEoQ-268" value="&lt;b&gt;Sistema&lt;/b&gt;" style="swimlane;fontStyle=0;childLayout=stackLayout;horizontal=1;startSize=26;fillColor=none;horizontalStack=0;resizeParent=1;resizeParentMax=0;resizeLast=0;collapsible=1;marginBottom=0;whiteSpace=wrap;html=1;" vertex="1" parent="1">
          <mxGeometry x="-440" y="2338" width="140" height="208" as="geometry" />
        </mxCell>
        <mxCell id="39ZywAYGFi1s37GMVEoQ-280" value="+ iniciarSesion()" style="text;strokeColor=none;fillColor=none;align=left;verticalAlign=top;spacingLeft=4;spacingRight=4;overflow=hidden;rotatable=0;points=[[0,0.5],[1,0.5]];portConstraint=eastwest;whiteSpace=wrap;html=1;" vertex="1" parent="39ZywAYGFi1s37GMVEoQ-268">
          <mxGeometry y="26" width="140" height="26" as="geometry" />
        </mxCell>
        <mxCell id="39ZywAYGFi1s37GMVEoQ-279" value="+ cerrarSesion()" style="text;strokeColor=none;fillColor=none;align=left;verticalAlign=top;spacingLeft=4;spacingRight=4;overflow=hidden;rotatable=0;points=[[0,0.5],[1,0.5]];portConstraint=eastwest;whiteSpace=wrap;html=1;" vertex="1" parent="39ZywAYGFi1s37GMVEoQ-268">
          <mxGeometry y="52" width="140" height="26" as="geometry" />
        </mxCell>
        <mxCell id="39ZywAYGFi1s37GMVEoQ-269" value="+ registrarEquipo()" style="text;strokeColor=none;fillColor=none;align=left;verticalAlign=top;spacingLeft=4;spacingRight=4;overflow=hidden;rotatable=0;points=[[0,0.5],[1,0.5]];portConstraint=eastwest;whiteSpace=wrap;html=1;" vertex="1" parent="39ZywAYGFi1s37GMVEoQ-268">
          <mxGeometry y="78" width="140" height="26" as="geometry" />
        </mxCell>
        <mxCell id="39ZywAYGFi1s37GMVEoQ-273" value="+ buscarEquipo()" style="text;strokeColor=none;fillColor=none;align=left;verticalAlign=top;spacingLeft=4;spacingRight=4;overflow=hidden;rotatable=0;points=[[0,0.5],[1,0.5]];portConstraint=eastwest;whiteSpace=wrap;html=1;" vertex="1" parent="39ZywAYGFi1s37GMVEoQ-268">
          <mxGeometry y="104" width="140" height="26" as="geometry" />
        </mxCell>
        <mxCell id="39ZywAYGFi1s37GMVEoQ-274" value="+ buscarJugador()" style="text;strokeColor=none;fillColor=none;align=left;verticalAlign=top;spacingLeft=4;spacingRight=4;overflow=hidden;rotatable=0;points=[[0,0.5],[1,0.5]];portConstraint=eastwest;whiteSpace=wrap;html=1;" vertex="1" parent="39ZywAYGFi1s37GMVEoQ-268">
          <mxGeometry y="130" width="140" height="26" as="geometry" />
        </mxCell>
        <mxCell id="39ZywAYGFi1s37GMVEoQ-275" value="+ crearTorneo" style="text;strokeColor=none;fillColor=none;align=left;verticalAlign=top;spacingLeft=4;spacingRight=4;overflow=hidden;rotatable=0;points=[[0,0.5],[1,0.5]];portConstraint=eastwest;whiteSpace=wrap;html=1;" vertex="1" parent="39ZywAYGFi1s37GMVEoQ-268">
          <mxGeometry y="156" width="140" height="26" as="geometry" />
        </mxCell>
        <mxCell id="39ZywAYGFi1s37GMVEoQ-276" value="+ buscarTorneo" style="text;strokeColor=none;fillColor=none;align=left;verticalAlign=top;spacingLeft=4;spacingRight=4;overflow=hidden;rotatable=0;points=[[0,0.5],[1,0.5]];portConstraint=eastwest;whiteSpace=wrap;html=1;" vertex="1" parent="39ZywAYGFi1s37GMVEoQ-268">
          <mxGeometry y="182" width="140" height="26" as="geometry" />
        </mxCell>
        <mxCell id="39ZywAYGFi1s37GMVEoQ-281" value="" style="endArrow=blockThin;dashed=1;html=1;rounded=0;exitX=1.006;exitY=-0.015;exitDx=0;exitDy=0;exitPerimeter=0;entryX=-0.005;entryY=-0.138;entryDx=0;entryDy=0;entryPerimeter=0;endFill=0;" edge="1" parent="1" source="39ZywAYGFi1s37GMVEoQ-269" target="39ZywAYGFi1s37GMVEoQ-256">
          <mxGeometry width="50" height="50" relative="1" as="geometry">
            <mxPoint x="-168" y="2440" as="sourcePoint" />
            <mxPoint x="-118" y="2390" as="targetPoint" />
          </mxGeometry>
        </mxCell>
        <mxCell id="39ZywAYGFi1s37GMVEoQ-285" value="" style="endArrow=none;dashed=1;html=1;rounded=0;entryX=0.526;entryY=1.179;entryDx=0;entryDy=0;entryPerimeter=0;" edge="1" parent="1" target="39ZywAYGFi1s37GMVEoQ-276">
          <mxGeometry width="50" height="50" relative="1" as="geometry">
            <mxPoint x="-370" y="2920" as="sourcePoint" />
            <mxPoint x="-568" y="2540" as="targetPoint" />
          </mxGeometry>
        </mxCell>
        <mxCell id="39ZywAYGFi1s37GMVEoQ-287" value="" style="endArrow=none;dashed=1;html=1;rounded=0;exitX=0.01;exitY=0.923;exitDx=0;exitDy=0;exitPerimeter=0;startArrow=blockThin;startFill=0;" edge="1" parent="1" source="39ZywAYGFi1s37GMVEoQ-224">
          <mxGeometry width="50" height="50" relative="1" as="geometry">
            <mxPoint x="-618" y="2590" as="sourcePoint" />
            <mxPoint x="-368" y="2920" as="targetPoint" />
          </mxGeometry>
        </mxCell>
      </root>
    </mxGraphModel>
  </diagram>
</mxfile>
